<svg version="1.1" id="图层_1" xmlns="http://www.w3.org/2000/svg" xmlns:xlink="http://www.w3.org/1999/xlink" x="0px"
    y="0px" width="216.60649819494586" height="210.5411044953271"
    viewBox="56.91864776611328 58.150001525878906 86.16271209716797 83.74999237060547"
    style="enable-background:new 0 0 200 200;" xml:space="preserve" class="style-removed" preserveAspectRatio="none"
    data-parent="shape_2CZDBaSoEu">

    <g>
        <path d="M115.4,141.9H84.6c-7.9,0-14.8-5-17.3-12.6L57.8,100c-2.4-7.5,0.2-15.7,6.6-20.3l24.9-18.1
		c6.4-4.6,15-4.6,21.4,0l24.9,18.1c6.4,4.6,9,12.8,6.6,20.3l-9.5,29.3C130.2,136.8,123.3,141.9,115.4,141.9z M100,63.7
		c-2.6,0-5.2,0.8-7.4,2.4L67.7,84.2c-4.4,3.2-6.3,8.9-4.6,14.1l9.5,29.3c1.7,5.2,6.5,8.7,12,8.7h30.8c5.5,0,10.3-3.5,12-8.7
		l9.5-29.3c1.7-5.2-0.1-10.9-4.6-14.1l-24.9-18.1C105.2,64.5,102.6,63.7,100,63.7z" fill="#009FE8" stroke-width="0">
        </path>
        <path d="M102.2,137.7c-3.9,0.6-7.8-0.3-11.1-2.7l-19.8-14.2c-5.3-3.8-7.4-10.5-5.4-16.7l7.5-23.1
		c2-6.2,7.7-10.3,14.2-10.3l24.3,0c6.5,0,12.2,4.1,14.2,10.3l7.5,23.1c2,6.2-0.2,12.9-5.5,16.7l-19.6,14.2
		C106.7,136.5,104.5,137.4,102.2,137.7z M86.2,76.4c-3.5,0.5-6.3,2.9-7.4,6.3l-7.5,23.1c-1.2,3.8,0.1,8.1,3.4,10.5l19.7,14.3
		c3.3,2.4,7.7,2.4,11,0l19.6-14.2c3.3-2.3,4.6-6.6,3.4-10.5l-7.5-23.1c-1.2-3.9-4.9-6.4-8.9-6.5l-24.3,0
		C87.2,76.3,86.7,76.3,86.2,76.4z" fill="#009FE8" stroke-width="0"></path>
        <path d="M87.4,118.2L87.4,118.2c-1.3,0-2.4-1.1-2.4-2.4v-13.2c0-1.3,1.1-2.4,2.4-2.4l0,0c1.3,0,2.4,1.1,2.4,2.4v13.2
		C89.8,117.1,88.7,118.2,87.4,118.2z" fill="#009FE8" stroke-width="0"></path>
        <path d="M112.6,118.2L112.6,118.2c-1.3,0-2.4-1.1-2.4-2.4v-13.2c0-1.3,1.1-2.4,2.4-2.4l0,0c1.3,0,2.4,1.1,2.4,2.4v13.2
		C115,117.1,114,118.2,112.6,118.2z" fill="#009FE8" stroke-width="0"></path>
        <path d="M100,124.4L100,124.4c-1.6,0-2.8-1.3-2.8-2.8V93.4c0-1.6,1.3-2.8,2.8-2.8l0,0c1.6,0,2.8,1.3,2.8,2.8v28.2
		C102.8,123.1,101.6,124.4,100,124.4z" fill="#009FE8" stroke-width="0"></path>
        <circle cx="87.4" cy="95.8" r="2.6" fill="#009FE8" stroke-width="0"></circle>
        <circle cx="112.6" cy="95.8" r="2.6" fill="#009FE8" stroke-width="0"></circle>
        <circle cx="100" cy="84.4" r="2.6" fill="#009FE8" stroke-width="0"></circle>
    </g>
</svg>